<?xml version="1.0" encoding="UTF-8"?>
<svg id="Camada_2" data-name="Camada 2" xmlns="http://www.w3.org/2000/svg" xmlns:xlink="http://www.w3.org/1999/xlink" viewBox="0 0 182.21 24.91">
  <defs>
    <style>
      .cls-1 {
        fill: url(#Gradiente_sem_nome_28);
      }

      .cls-2 {
        fill: url(#Gradiente_sem_nome_28-17);
      }

      .cls-3 {
        fill: url(#Gradiente_sem_nome_28-11);
      }

      .cls-4 {
        fill: url(#Gradiente_sem_nome_28-16);
      }

      .cls-5 {
        fill: url(#Gradiente_sem_nome_28-13);
      }

      .cls-6 {
        fill: url(#Gradiente_sem_nome_28-12);
      }

      .cls-7 {
        fill: url(#Gradiente_sem_nome_28-19);
      }

      .cls-8 {
        fill: url(#Gradiente_sem_nome_28-18);
      }

      .cls-9 {
        fill: url(#Gradiente_sem_nome_28-10);
      }

      .cls-10 {
        fill: url(#Gradiente_sem_nome_28-15);
      }

      .cls-11 {
        fill: url(#Gradiente_sem_nome_28-14);
      }

      .cls-12 {
        fill: url(#Gradiente_sem_nome_28-28);
      }

      .cls-13 {
        fill: url(#Gradiente_sem_nome_28-27);
      }

      .cls-14 {
        fill: url(#Gradiente_sem_nome_28-29);
      }

      .cls-15 {
        fill: url(#Gradiente_sem_nome_28-24);
      }

      .cls-16 {
        fill: url(#Gradiente_sem_nome_28-23);
      }

      .cls-17 {
        fill: url(#Gradiente_sem_nome_28-26);
      }

      .cls-18 {
        fill: url(#Gradiente_sem_nome_28-25);
      }

      .cls-19 {
        fill: url(#Gradiente_sem_nome_28-21);
      }

      .cls-20 {
        fill: url(#Gradiente_sem_nome_28-22);
      }

      .cls-21 {
        fill: url(#Gradiente_sem_nome_28-20);
      }

      .cls-22 {
        fill: url(#Gradiente_sem_nome_28-47);
      }

      .cls-23 {
        fill: url(#Gradiente_sem_nome_28-49);
      }

      .cls-24 {
        fill: url(#Gradiente_sem_nome_28-42);
      }

      .cls-25 {
        fill: url(#Gradiente_sem_nome_28-43);
      }

      .cls-26 {
        fill: url(#Gradiente_sem_nome_28-46);
      }

      .cls-27 {
        fill: url(#Gradiente_sem_nome_28-45);
      }

      .cls-28 {
        fill: url(#Gradiente_sem_nome_28-48);
      }

      .cls-29 {
        fill: url(#Gradiente_sem_nome_28-41);
      }

      .cls-30 {
        fill: url(#Gradiente_sem_nome_28-44);
      }

      .cls-31 {
        fill: url(#Gradiente_sem_nome_28-50);
      }

      .cls-32 {
        fill: url(#Gradiente_sem_nome_28-51);
      }

      .cls-33 {
        fill: url(#Gradiente_sem_nome_28-40);
      }

      .cls-34 {
        fill: url(#Gradiente_sem_nome_28-38);
      }

      .cls-35 {
        fill: url(#Gradiente_sem_nome_28-39);
      }

      .cls-36 {
        fill: url(#Gradiente_sem_nome_28-34);
      }

      .cls-37 {
        fill: url(#Gradiente_sem_nome_28-35);
      }

      .cls-38 {
        fill: url(#Gradiente_sem_nome_28-33);
      }

      .cls-39 {
        fill: url(#Gradiente_sem_nome_28-37);
      }

      .cls-40 {
        fill: url(#Gradiente_sem_nome_28-30);
      }

      .cls-41 {
        fill: url(#Gradiente_sem_nome_28-31);
      }

      .cls-42 {
        fill: url(#Gradiente_sem_nome_28-32);
      }

      .cls-43 {
        fill: url(#Gradiente_sem_nome_28-36);
      }

      .cls-44 {
        fill: url(#Gradiente_sem_nome_28-4);
      }

      .cls-45 {
        fill: url(#Gradiente_sem_nome_28-5);
      }

      .cls-46 {
        fill: url(#Gradiente_sem_nome_28-2);
      }

      .cls-47 {
        fill: url(#Gradiente_sem_nome_28-3);
      }

      .cls-48 {
        fill: url(#Gradiente_sem_nome_28-6);
      }

      .cls-49 {
        fill: url(#Gradiente_sem_nome_28-7);
      }

      .cls-50 {
        fill: url(#Gradiente_sem_nome_28-9);
      }

      .cls-51 {
        fill: url(#Gradiente_sem_nome_28-8);
      }
    </style>
    <linearGradient id="Gradiente_sem_nome_28" data-name="Gradiente sem nome 28" x1="51.13" y1="1.1" x2="159.27" y2="69.72" gradientUnits="userSpaceOnUse">
      <stop offset="0" stop-color="#edc780"/>
      <stop offset=".19" stop-color="#e6c180"/>
      <stop offset=".6" stop-color="#c1830f"/>
      <stop offset=".81" stop-color="#e4b86a"/>
      <stop offset=".87" stop-color="#eec784"/>
      <stop offset="1" stop-color="#f0e3cd"/>
    </linearGradient>
    <linearGradient id="Gradiente_sem_nome_28-2" data-name="Gradiente sem nome 28" x1="53.16" y1="-2.12" x2="161.38" y2="66.54" xlink:href="#Gradiente_sem_nome_28"/>
    <linearGradient id="Gradiente_sem_nome_28-3" data-name="Gradiente sem nome 28" x1="54.72" y1="-4.45" x2="162.74" y2="64.09" xlink:href="#Gradiente_sem_nome_28"/>
    <linearGradient id="Gradiente_sem_nome_28-4" data-name="Gradiente sem nome 28" x1="56.68" y1="-7.64" x2="164.92" y2="61.03" xlink:href="#Gradiente_sem_nome_28"/>
    <linearGradient id="Gradiente_sem_nome_28-5" data-name="Gradiente sem nome 28" x1="57.97" y1="-9.47" x2="165.95" y2="59.04" xlink:href="#Gradiente_sem_nome_28"/>
    <linearGradient id="Gradiente_sem_nome_28-6" data-name="Gradiente sem nome 28" x1="58.66" y1="-10.55" x2="166.65" y2="57.97" xlink:href="#Gradiente_sem_nome_28"/>
    <linearGradient id="Gradiente_sem_nome_28-7" data-name="Gradiente sem nome 28" x1="59.28" y1="-11.67" x2="167.48" y2="56.99" xlink:href="#Gradiente_sem_nome_28"/>
    <linearGradient id="Gradiente_sem_nome_28-8" data-name="Gradiente sem nome 28" x1="62.83" y1="-17.24" x2="171.05" y2="51.43" xlink:href="#Gradiente_sem_nome_28"/>
    <linearGradient id="Gradiente_sem_nome_28-9" data-name="Gradiente sem nome 28" x1="63.75" y1="-18.66" x2="171.96" y2="49.99" xlink:href="#Gradiente_sem_nome_28"/>
    <linearGradient id="Gradiente_sem_nome_28-10" data-name="Gradiente sem nome 28" x1="65.49" y1="-21.18" x2="173.51" y2="47.36" xlink:href="#Gradiente_sem_nome_28"/>
    <linearGradient id="Gradiente_sem_nome_28-11" data-name="Gradiente sem nome 28" x1="66.66" y1="-23" x2="174.68" y2="45.53" xlink:href="#Gradiente_sem_nome_28"/>
    <linearGradient id="Gradiente_sem_nome_28-12" data-name="Gradiente sem nome 28" x1="68.04" y1="-25.12" x2="176.03" y2="43.4" xlink:href="#Gradiente_sem_nome_28"/>
    <linearGradient id="Gradiente_sem_nome_28-13" data-name="Gradiente sem nome 28" x1="69.02" y1="-26.63" x2="177" y2="41.88" xlink:href="#Gradiente_sem_nome_28"/>
    <linearGradient id="Gradiente_sem_nome_28-14" data-name="Gradiente sem nome 28" x1="69.76" y1="-27.99" x2="177.92" y2="40.64" xlink:href="#Gradiente_sem_nome_28"/>
    <linearGradient id="Gradiente_sem_nome_28-15" data-name="Gradiente sem nome 28" x1="71.58" y1="-31" x2="179.86" y2="37.71" xlink:href="#Gradiente_sem_nome_28"/>
    <linearGradient id="Gradiente_sem_nome_28-16" data-name="Gradiente sem nome 28" x1="75.2" y1="-36.59" x2="183.43" y2="32.09" xlink:href="#Gradiente_sem_nome_28"/>
    <linearGradient id="Gradiente_sem_nome_28-17" data-name="Gradiente sem nome 28" x1="77.12" y1="-39.68" x2="185.4" y2="29.03" xlink:href="#Gradiente_sem_nome_28"/>
    <linearGradient id="Gradiente_sem_nome_28-18" data-name="Gradiente sem nome 28" x1="78.99" y1="-42.16" x2="187.01" y2="26.38" xlink:href="#Gradiente_sem_nome_28"/>
    <linearGradient id="Gradiente_sem_nome_28-19" data-name="Gradiente sem nome 28" x1="80.17" y1="-44.46" x2="188.45" y2="24.24" xlink:href="#Gradiente_sem_nome_28"/>
    <linearGradient id="Gradiente_sem_nome_28-20" data-name="Gradiente sem nome 28" x1="81.99" y1="-47.2" x2="190.21" y2="21.47" xlink:href="#Gradiente_sem_nome_28"/>
    <linearGradient id="Gradiente_sem_nome_28-21" data-name="Gradiente sem nome 28" x1="84.25" y1="-50.27" x2="192.24" y2="18.25" xlink:href="#Gradiente_sem_nome_28"/>
    <linearGradient id="Gradiente_sem_nome_28-22" data-name="Gradiente sem nome 28" x1="39.27" y1="2.68" x2="147.39" y2="71.28" xlink:href="#Gradiente_sem_nome_28"/>
    <linearGradient id="Gradiente_sem_nome_28-23" data-name="Gradiente sem nome 28" x1="40.43" y1=".81" x2="148.65" y2="69.48" xlink:href="#Gradiente_sem_nome_28"/>
    <linearGradient id="Gradiente_sem_nome_28-24" data-name="Gradiente sem nome 28" x1="41.88" y1="-1.4" x2="149.99" y2="67.19" xlink:href="#Gradiente_sem_nome_28"/>
    <linearGradient id="Gradiente_sem_nome_28-25" data-name="Gradiente sem nome 28" x1="42.71" y1="-2.79" x2="150.97" y2="65.9" xlink:href="#Gradiente_sem_nome_28"/>
    <linearGradient id="Gradiente_sem_nome_28-26" data-name="Gradiente sem nome 28" x1="44.01" y1="-4.8" x2="152.23" y2="63.87" xlink:href="#Gradiente_sem_nome_28"/>
    <linearGradient id="Gradiente_sem_nome_28-27" data-name="Gradiente sem nome 28" x1="44.73" y1="-5.83" x2="152.85" y2="62.77" xlink:href="#Gradiente_sem_nome_28"/>
    <linearGradient id="Gradiente_sem_nome_28-28" data-name="Gradiente sem nome 28" x1="46.1" y1="-8.06" x2="154.32" y2="60.61" xlink:href="#Gradiente_sem_nome_28"/>
    <linearGradient id="Gradiente_sem_nome_28-29" data-name="Gradiente sem nome 28" x1="46.76" y1="-8.84" x2="154.71" y2="59.65" xlink:href="#Gradiente_sem_nome_28"/>
    <linearGradient id="Gradiente_sem_nome_28-30" data-name="Gradiente sem nome 28" x1="47.2" y1="-9.69" x2="155.32" y2="58.92" xlink:href="#Gradiente_sem_nome_28"/>
    <linearGradient id="Gradiente_sem_nome_28-31" data-name="Gradiente sem nome 28" x1="48.79" y1="-12.19" x2="156.93" y2="56.43" xlink:href="#Gradiente_sem_nome_28"/>
    <linearGradient id="Gradiente_sem_nome_28-32" data-name="Gradiente sem nome 28" x1="50.22" y1="-14.51" x2="158.45" y2="54.15" xlink:href="#Gradiente_sem_nome_28"/>
    <linearGradient id="Gradiente_sem_nome_28-33" data-name="Gradiente sem nome 28" x1="51.15" y1="-16" x2="159.41" y2="52.69" xlink:href="#Gradiente_sem_nome_28"/>
    <linearGradient id="Gradiente_sem_nome_28-34" data-name="Gradiente sem nome 28" x1="52.37" y1="-17.84" x2="160.56" y2="50.81" xlink:href="#Gradiente_sem_nome_28"/>
    <linearGradient id="Gradiente_sem_nome_28-35" data-name="Gradiente sem nome 28" x1="53.38" y1="-19.38" x2="161.54" y2="49.26" xlink:href="#Gradiente_sem_nome_28"/>
    <linearGradient id="Gradiente_sem_nome_28-36" data-name="Gradiente sem nome 28" x1="54.49" y1="-21.15" x2="162.68" y2="47.5" xlink:href="#Gradiente_sem_nome_28"/>
    <linearGradient id="Gradiente_sem_nome_28-37" data-name="Gradiente sem nome 28" x1="55.16" y1="-22.12" x2="163.3" y2="46.5" xlink:href="#Gradiente_sem_nome_28"/>
    <linearGradient id="Gradiente_sem_nome_28-38" data-name="Gradiente sem nome 28" x1="56.28" y1="-23.84" x2="164.39" y2="44.76" xlink:href="#Gradiente_sem_nome_28"/>
    <linearGradient id="Gradiente_sem_nome_28-39" data-name="Gradiente sem nome 28" x1="56.98" y1="-25.13" x2="165.24" y2="43.56" xlink:href="#Gradiente_sem_nome_28"/>
    <linearGradient id="Gradiente_sem_nome_28-40" data-name="Gradiente sem nome 28" x1="58.03" y1="-26.63" x2="166.19" y2="42" xlink:href="#Gradiente_sem_nome_28"/>
    <linearGradient id="Gradiente_sem_nome_28-41" data-name="Gradiente sem nome 28" x1="58.91" y1="-27.68" x2="166.86" y2="40.81" xlink:href="#Gradiente_sem_nome_28"/>
    <linearGradient id="Gradiente_sem_nome_28-42" data-name="Gradiente sem nome 28" x1="59.31" y1="-28.55" x2="167.43" y2="40.05" xlink:href="#Gradiente_sem_nome_28"/>
    <linearGradient id="Gradiente_sem_nome_28-43" data-name="Gradiente sem nome 28" x1="60.87" y1="-30.64" x2="168.78" y2="37.82" xlink:href="#Gradiente_sem_nome_28"/>
    <linearGradient id="Gradiente_sem_nome_28-44" data-name="Gradiente sem nome 28" x1="61.72" y1="-32.44" x2="169.91" y2="36.21" xlink:href="#Gradiente_sem_nome_28"/>
    <linearGradient id="Gradiente_sem_nome_28-45" data-name="Gradiente sem nome 28" x1="62.56" y1="-33.71" x2="170.73" y2="34.92" xlink:href="#Gradiente_sem_nome_28"/>
    <linearGradient id="Gradiente_sem_nome_28-46" data-name="Gradiente sem nome 28" x1="63.77" y1="-35.24" x2="171.73" y2="33.26" xlink:href="#Gradiente_sem_nome_28"/>
    <linearGradient id="Gradiente_sem_nome_28-47" data-name="Gradiente sem nome 28" x1="63.88" y1="-35.88" x2="172.11" y2="32.79" xlink:href="#Gradiente_sem_nome_28"/>
    <linearGradient id="Gradiente_sem_nome_28-48" data-name="Gradiente sem nome 28" x1="65.04" y1="-37.18" x2="172.99" y2="31.31" xlink:href="#Gradiente_sem_nome_28"/>
    <linearGradient id="Gradiente_sem_nome_28-49" data-name="Gradiente sem nome 28" x1="65.68" y1="-38.69" x2="173.9" y2="29.98" xlink:href="#Gradiente_sem_nome_28"/>
    <linearGradient id="Gradiente_sem_nome_28-50" data-name="Gradiente sem nome 28" x1="66.45" y1="-39.69" x2="174.57" y2="28.92" xlink:href="#Gradiente_sem_nome_28"/>
    <linearGradient id="Gradiente_sem_nome_28-51" data-name="Gradiente sem nome 28" x1="0" y1="12.45" x2="57.16" y2="12.45" xlink:href="#Gradiente_sem_nome_28"/>
  </defs>
  <g id="Camada_1-2" data-name="Camada 1">
    <g>
      <g>
        <path class="cls-1" d="M67.21,12.88l-.86,2.58h-1.1l2.8-8.2h1.28l2.81,8.2h-1.14l-.88-2.58h-2.92ZM69.91,12.06l-.81-2.36c-.18-.54-.31-1.02-.43-1.5h-.02c-.12.49-.26.99-.42,1.48l-.81,2.37h2.48Z"/>
        <path class="cls-46" d="M78.13,13.86c0,.61.01,1.14.05,1.61h-.95l-.06-.96h-.02c-.28.47-.91,1.1-1.96,1.1-.93,0-2.04-.51-2.04-2.58v-3.44h1.08v3.26c0,1.12.34,1.87,1.32,1.87.72,0,1.22-.5,1.42-.97.06-.16.1-.35.1-.55v-3.61h1.08v4.28Z"/>
        <path class="cls-47" d="M79.92,11.41c0-.69-.01-1.29-.05-1.84h.94l.04,1.16h.05c.27-.79.92-1.29,1.64-1.29.12,0,.21.01.31.04v1.01c-.11-.02-.22-.04-.37-.04-.76,0-1.3.57-1.44,1.37-.02.15-.05.32-.05.5v3.14h-1.06v-4.05Z"/>
        <path class="cls-44" d="M84.39,12.71c.02,1.45.95,2.04,2.03,2.04.77,0,1.24-.13,1.64-.3l.18.77c-.38.17-1.03.36-1.97.36-1.82,0-2.91-1.19-2.91-2.97s1.05-3.18,2.78-3.18c1.93,0,2.45,1.69,2.45,2.77,0,.22-.02.39-.04.5h-4.16ZM87.55,11.95c.01-.68-.28-1.74-1.49-1.74-1.09,0-1.57,1-1.65,1.74h3.14ZM87.81,7.03l-1.49,1.74h-.77l1.08-1.74h1.19Z"/>
        <path class="cls-45" d="M89.92,6.83h1.08v8.64h-1.08V6.83Z"/>
        <path class="cls-48" d="M94.01,7.92c.01.37-.26.66-.69.66-.38,0-.65-.29-.65-.66s.28-.67.67-.67.66.29.66.67ZM92.81,15.46v-5.89h1.08v5.89h-1.08Z"/>
        <path class="cls-49" d="M98.95,15.46l-.09-.74h-.04c-.33.46-.97.88-1.81.88-1.2,0-1.81-.84-1.81-1.69,0-1.42,1.27-2.2,3.56-2.19v-.12c0-.49-.13-1.36-1.35-1.36-.55,0-1.13.17-1.54.44l-.24-.71c.49-.32,1.2-.52,1.94-.52,1.81,0,2.25,1.23,2.25,2.41v2.2c0,.51.02,1.01.1,1.41h-.98ZM98.79,12.46c-1.17-.02-2.51.18-2.51,1.33,0,.69.46,1.02,1.02,1.02.77,0,1.26-.49,1.43-.99.04-.11.06-.23.06-.34v-1.02Z"/>
        <path class="cls-51" d="M109.96,15.2c-.39.19-1.17.39-2.18.39-2.32,0-4.07-1.46-4.07-4.15s1.75-4.31,4.31-4.31c1.03,0,1.68.22,1.96.36l-.26.86c-.4-.19-.98-.34-1.66-.34-1.93,0-3.22,1.23-3.22,3.38,0,2.01,1.16,3.3,3.17,3.3.65,0,1.31-.13,1.74-.34l.22.84Z"/>
        <path class="cls-50" d="M114.44,15.46l-.09-.74h-.04c-.33.46-.97.88-1.81.88-1.2,0-1.81-.84-1.81-1.69,0-1.42,1.27-2.2,3.56-2.19v-.12c0-.49-.13-1.36-1.35-1.36-.55,0-1.13.17-1.54.44l-.24-.71c.49-.32,1.2-.52,1.94-.52,1.81,0,2.25,1.23,2.25,2.41v2.2c0,.51.02,1.01.1,1.41h-.98ZM114.29,12.46c-1.17-.02-2.51.18-2.51,1.33,0,.69.46,1.02,1.02,1.02.77,0,1.26-.49,1.43-.99.04-.11.06-.23.06-.34v-1.02Z"/>
        <path class="cls-9" d="M117.06,11.41c0-.69-.01-1.29-.05-1.84h.94l.04,1.16h.05c.27-.79.92-1.29,1.64-1.29.12,0,.21.01.31.04v1.01c-.11-.02-.22-.04-.37-.04-.76,0-1.3.57-1.44,1.37-.02.15-.05.32-.05.5v3.14h-1.06v-4.05Z"/>
        <path class="cls-3" d="M121.11,11.41c0-.69-.01-1.29-.05-1.84h.94l.04,1.16h.05c.27-.79.92-1.29,1.64-1.29.12,0,.21.01.31.04v1.01c-.11-.02-.22-.04-.37-.04-.76,0-1.3.57-1.44,1.37-.02.15-.05.32-.05.5v3.14h-1.06v-4.05Z"/>
        <path class="cls-6" d="M126.36,7.92c.01.37-.26.66-.68.66-.38,0-.65-.29-.65-.66s.28-.67.67-.67.66.29.66.67ZM125.16,15.46v-5.89h1.08v5.89h-1.08Z"/>
        <path class="cls-5" d="M128.02,6.83h1.08v8.64h-1.08V6.83Z"/>
        <path class="cls-11" d="M130.91,6.83h1.08v3.67h.02c.17-.3.44-.57.77-.75.32-.18.7-.3,1.1-.3.8,0,2.07.49,2.07,2.52v3.5h-1.08v-3.38c0-.95-.35-1.75-1.37-1.75-.7,0-1.25.49-1.44,1.07-.06.15-.07.3-.07.51v3.55h-1.08V6.83Z"/>
        <path class="cls-10" d="M143.05,12.47c0,2.18-1.52,3.13-2.95,3.13-1.6,0-2.84-1.17-2.84-3.03,0-1.97,1.3-3.13,2.94-3.13s2.85,1.23,2.85,3.03ZM138.36,12.53c0,1.29.75,2.26,1.8,2.26s1.8-.96,1.8-2.29c0-1-.5-2.26-1.77-2.26s-1.82,1.17-1.82,2.29Z"/>
        <path class="cls-4" d="M153.99,11.86c-.06-1.14-.13-2.52-.12-3.54h-.04c-.28.96-.62,1.98-1.04,3.11l-1.46,3.98h-.81l-1.33-3.91c-.39-1.16-.72-2.21-.95-3.19h-.02c-.02,1.02-.09,2.4-.16,3.63l-.22,3.52h-1.02l.57-8.2h1.36l1.41,3.97c.34,1.01.62,1.91.83,2.76h.04c.21-.83.5-1.73.87-2.76l1.47-3.97h1.36l.51,8.2h-1.04l-.21-3.6Z"/>
        <path class="cls-2" d="M162.27,12.47c0,2.18-1.52,3.13-2.95,3.13-1.6,0-2.84-1.17-2.84-3.03,0-1.97,1.3-3.13,2.94-3.13s2.85,1.23,2.85,3.03ZM157.57,12.53c0,1.29.75,2.26,1.8,2.26s1.8-.96,1.8-2.29c0-1-.5-2.26-1.77-2.26s-1.82,1.17-1.82,2.29Z"/>
        <path class="cls-8" d="M163.63,11.41c0-.69-.01-1.29-.05-1.84h.94l.04,1.16h.05c.27-.79.92-1.29,1.64-1.29.12,0,.21.01.31.04v1.01c-.11-.02-.22-.04-.37-.04-.76,0-1.3.57-1.44,1.37-.02.15-.05.32-.05.5v3.14h-1.06v-4.05Z"/>
        <path class="cls-7" d="M172.86,12.47c0,2.18-1.52,3.13-2.95,3.13-1.6,0-2.84-1.17-2.84-3.03,0-1.97,1.3-3.13,2.94-3.13s2.85,1.23,2.85,3.03ZM168.16,12.53c0,1.29.75,2.26,1.8,2.26s1.8-.96,1.8-2.29c0-1-.5-2.26-1.77-2.26s-1.82,1.17-1.82,2.29Z"/>
        <path class="cls-21" d="M174.22,11.17c0-.61-.01-1.11-.05-1.59h.95l.06.97h.02c.29-.56.98-1.11,1.96-1.11.82,0,2.09.49,2.09,2.51v3.52h-1.08v-3.39c0-.95-.35-1.74-1.37-1.74-.71,0-1.26.5-1.44,1.1-.05.13-.07.32-.07.5v3.54h-1.08v-4.29Z"/>
        <path class="cls-19" d="M182.2,7.92c.01.37-.26.66-.69.66-.38,0-.65-.29-.65-.66s.28-.67.67-.67.66.29.66.67ZM181.01,15.46v-5.89h1.08v5.89h-1.08Z"/>
      </g>
      <g>
        <path class="cls-20" d="M66.08,20.38l-.52,1.48h-.31l1.54-4.23h.29l1.53,4.23h-.31l-.54-1.48h-1.68ZM67.67,20.13l-.52-1.41c-.1-.29-.16-.51-.22-.75h-.01c-.06.24-.13.46-.22.73l-.52,1.42h1.49Z"/>
        <path class="cls-16" d="M69.27,17.69c.32-.05.69-.09,1.08-.09.78,0,1.36.21,1.71.58.34.35.53.82.53,1.46s-.17,1.18-.55,1.6c-.38.41-1.01.65-1.83.65-.33,0-.64,0-.94-.04v-4.16ZM69.56,21.61c.18.03.42.03.69.03,1.36,0,2.04-.76,2.04-1.98,0-1.07-.59-1.81-1.95-1.81-.33,0-.59.03-.77.06v3.69Z"/>
        <path class="cls-15" d="M74.29,21.86l-1.41-4.23h.32l.75,2.26c.21.61.38,1.15.5,1.62h.02c.13-.48.32-1.02.54-1.62l.83-2.26h.32l-1.58,4.23h-.28Z"/>
        <path class="cls-18" d="M80.1,19.7c0,1.49-.91,2.23-1.9,2.23-1.05,0-1.85-.82-1.85-2.14,0-1.39.84-2.23,1.9-2.23s1.85.83,1.85,2.14ZM76.66,19.78c0,.95.55,1.9,1.56,1.9s1.57-.91,1.57-1.96c0-.89-.49-1.91-1.56-1.91s-1.58.98-1.58,1.96Z"/>
        <path class="cls-17" d="M83.73,21.71c-.21.11-.62.21-1.14.21-1.03,0-2.01-.65-2.01-2.15,0-1.25.81-2.21,2.15-2.21.54,0,.86.12.99.19l-.1.25c-.21-.11-.52-.18-.88-.18-1.15,0-1.85.74-1.85,1.96,0,1.15.66,1.89,1.8,1.89.37,0,.72-.08.96-.19l.09.24Z"/>
        <path class="cls-13" d="M84.96,20.38l-.52,1.48h-.31l1.54-4.23h.29l1.53,4.23h-.31l-.54-1.48h-1.68ZM86.55,20.13l-.52-1.41c-.1-.29-.16-.51-.22-.75h-.01c-.06.24-.13.46-.22.73l-.52,1.42h1.49Z"/>
        <path class="cls-12" d="M90.96,21.71c-.21.11-.62.21-1.14.21-1.03,0-2.01-.65-2.01-2.15,0-1.25.81-2.21,2.15-2.21.54,0,.86.12.99.19l-.1.25c-.21-.11-.52-.18-.88-.18-1.15,0-1.85.74-1.85,1.96,0,1.15.66,1.89,1.8,1.89.37,0,.72-.08.96-.19l.09.24Z"/>
        <path class="cls-14" d="M91.97,17.64v4.23h-.3v-4.23h.3Z"/>
        <path class="cls-40" d="M93.51,20.38l-.52,1.48h-.31l1.54-4.23h.29l1.53,4.23h-.31l-.54-1.48h-1.68ZM95.1,20.13l-.52-1.41c-.1-.29-.16-.51-.22-.75h-.01c-.06.24-.13.46-.22.73l-.52,1.42h1.49Z"/>
        <path class="cls-41" d="M100.07,19.76h-1.7v1.85h1.9v.25h-2.2v-4.23h2.1v.25h-1.8v1.62h1.7v.25Z"/>
        <path class="cls-42" d="M105.26,21.71c-.21.11-.62.21-1.14.21-1.03,0-2.01-.65-2.01-2.15,0-1.25.81-2.21,2.15-2.21.54,0,.86.12.99.19l-.1.25c-.21-.11-.52-.18-.88-.18-1.15,0-1.85.74-1.85,1.96,0,1.15.66,1.89,1.8,1.89.37,0,.72-.08.96-.19l.09.24Z"/>
        <path class="cls-38" d="M109.35,19.7c0,1.49-.91,2.23-1.9,2.23-1.05,0-1.85-.82-1.85-2.14,0-1.39.84-2.23,1.9-2.23s1.85.83,1.85,2.14ZM105.91,19.78c0,.95.55,1.9,1.56,1.9s1.57-.91,1.57-1.96c0-.89-.49-1.91-1.56-1.91s-1.58.98-1.58,1.96Z"/>
        <path class="cls-36" d="M110.11,21.86v-4.23h.28l1.66,2.49c.34.53.59.92.79,1.33h.01c-.04-.58-.05-1.06-.05-1.72v-2.1h.3v4.23h-.28l-1.62-2.46c-.32-.49-.61-.93-.83-1.37h-.01c.03.53.04.98.04,1.69v2.14h-.29Z"/>
        <path class="cls-37" d="M113.99,21.39c.24.16.57.28.93.28.63,0,1.02-.36,1.02-.88,0-.48-.25-.75-.86-.99-.69-.24-1.1-.59-1.1-1.17,0-.62.52-1.07,1.24-1.07.4,0,.7.11.84.2l-.11.25c-.11-.08-.38-.2-.75-.2-.69,0-.92.44-.92.77,0,.47.27.71.88.95.7.28,1.07.6,1.07,1.23s-.44,1.16-1.35,1.16c-.37,0-.79-.12-1.01-.28l.11-.25Z"/>
        <path class="cls-43" d="M117.35,17.64v2.55c0,1.07.5,1.49,1.13,1.49.7,0,1.18-.45,1.18-1.49v-2.55h.3v2.52c0,1.3-.71,1.77-1.51,1.77-.74,0-1.41-.43-1.41-1.72v-2.57h.3Z"/>
        <path class="cls-39" d="M121,17.64h.3v3.97h1.9v.25h-2.19v-4.23Z"/>
        <path class="cls-34" d="M124.13,17.89h-1.38v-.25h3.07v.25h-1.39v3.97h-.3v-3.97Z"/>
        <path class="cls-35" d="M129.57,19.7c0,1.49-.91,2.23-1.9,2.23-1.05,0-1.85-.82-1.85-2.14,0-1.39.84-2.23,1.9-2.23s1.85.83,1.85,2.14ZM126.13,19.78c0,.95.55,1.9,1.56,1.9s1.57-.91,1.57-1.96c0-.89-.49-1.91-1.56-1.91s-1.58.98-1.58,1.96Z"/>
        <path class="cls-33" d="M130.32,17.69c.26-.06.62-.09.91-.09.55,0,.9.12,1.15.35.18.18.3.46.3.75,0,.57-.34.93-.83,1.1h0c.34.12.55.44.66.91.14.66.23.97.32,1.14h-.32c-.06-.13-.16-.5-.27-1.03-.13-.61-.39-.88-.95-.91h-.66v1.94h-.3v-4.17ZM130.62,19.68h.67c.66,0,1.08-.36,1.08-.92,0-.65-.48-.91-1.15-.91-.29,0-.5.03-.61.06v1.77Z"/>
        <path class="cls-29" d="M133.8,17.64v4.23h-.3v-4.23h.3Z"/>
        <path class="cls-24" d="M135.34,20.38l-.52,1.48h-.31l1.54-4.23h.29l1.53,4.23h-.31l-.54-1.48h-1.68ZM136.93,20.13l-.52-1.41c-.1-.29-.16-.51-.22-.75h-.01c-.06.24-.13.46-.22.73l-.52,1.42h1.49Z"/>
        <path class="cls-25" d="M140.79,17.64h.3v2.91c0,1.08-.54,1.38-1.15,1.38-.19,0-.41-.05-.52-.1l.06-.24c.11.04.26.09.45.09.54,0,.84-.25.84-1.18v-2.85Z"/>
        <path class="cls-30" d="M142.37,17.64v2.55c0,1.07.5,1.49,1.13,1.49.7,0,1.18-.45,1.18-1.49v-2.55h.3v2.52c0,1.3-.71,1.77-1.51,1.77-.74,0-1.41-.43-1.41-1.72v-2.57h.3Z"/>
        <path class="cls-27" d="M146.02,17.69c.26-.06.62-.09.91-.09.55,0,.9.12,1.15.35.18.18.3.46.3.75,0,.57-.34.93-.83,1.1h0c.34.12.55.44.66.91.14.66.23.97.32,1.14h-.32c-.06-.13-.16-.5-.27-1.03-.13-.61-.39-.88-.95-.91h-.66v1.94h-.3v-4.17ZM146.32,19.68h.67c.66,0,1.08-.36,1.08-.92,0-.65-.48-.91-1.15-.91-.29,0-.5.03-.61.06v1.77Z"/>
        <path class="cls-26" d="M150.18,16.7l-.83.71h-.25l.62-.71h.46ZM149.5,17.64v4.23h-.3v-4.23h.3Z"/>
        <path class="cls-22" d="M150.53,17.69c.32-.05.69-.09,1.08-.09.78,0,1.36.21,1.71.58.34.35.53.82.53,1.46s-.17,1.18-.55,1.6c-.38.41-1.01.65-1.83.65-.33,0-.64,0-.94-.04v-4.16ZM150.83,21.61c.18.03.42.03.69.03,1.36,0,2.04-.76,2.04-1.98,0-1.07-.59-1.81-1.95-1.81-.33,0-.59.03-.77.06v3.69Z"/>
        <path class="cls-28" d="M154.91,17.64v4.23h-.3v-4.23h.3Z"/>
        <path class="cls-23" d="M158.82,21.71c-.21.11-.62.21-1.14.21-1.03,0-2.01-.65-2.01-2.15,0-1.25.81-2.21,2.15-2.21.54,0,.86.12.99.19l-.1.25c-.21-.11-.52-.18-.88-.18-1.15,0-1.85.74-1.85,1.96,0,1.15.66,1.89,1.8,1.89.37,0,.72-.08.96-.19l.09.24Z"/>
        <path class="cls-31" d="M160.04,20.38l-.52,1.48h-.31l1.54-4.23h.29l1.53,4.23h-.31l-.54-1.48h-1.68ZM161.63,20.13l-.52-1.41c-.1-.29-.16-.51-.22-.75h-.01c-.06.24-.13.46-.22.73l-.52,1.42h1.49Z"/>
      </g>
      <path class="cls-32" d="M57.15,21.83c-.02-.06-.06-.13-.11-.16-.2-.08-.35.06-.43.28-.06.16-.14.3-.23.44-.24.37-.64.9-1.09.86-.45-.04-.66-.36-.79-.78-.1-.34-.15-.68-.18-1.03l-.02-.24-.02-.24-.02-.29-.02-.44-.03-.87V.51s-.04-.21-.04-.21c-.02-.14-.09-.24-.21-.29h-.37l-.04.02c-.35.09-.51.44-.64.79l-3.97,10.14-2.03,5.26-1.58,4.03-.41-2.19-.87-4.54c-.79-4.12-1.5-8.24-2.16-12.38l-.15-.79c-.03-.15-.11-.28-.24-.34h-.31c-.38.13-.55.42-.65.81l-.2.8-.99,3.97-.15.6-.91,3.77-1.04,3.85-.99,3.16c-.37,1.08-.77,2.14-1.24,3.17l-.16.3c-.22.34-.45.66-.74.94l-.68.68c-.41.38-.84.72-1.29,1.05-.73.34-1.5.54-2.3.59h-.86c-1.48-.08-2.82-.64-3.89-1.66l-.2-.2-.21-.22c-.43-.49-.78-1.03-1.08-1.61-.7-1.38-1.09-3.03-1.24-4.56l-.02-.19-.02-.24c0-.06-.01-.12,0-.17,1.22-.4,2.4-.86,3.56-1.41l1.01-.51c1.14-.57,2.67-1.6,3.6-2.46l.25-.23.39-.39.23-.25c.6-.65,1.11-1.39,1.5-2.19.43-.87.68-1.8.78-2.76l.05-.5v-.28s0-.37,0-.37c-.08-.93-.5-1.79-1.19-2.4-.76-.67-1.75-1.02-2.76-1.08h-.97c-1.92.11-3.66.9-5.07,2.19l-.56.56c-1.38,1.5-2.3,3.42-2.82,5.39-.32,1.21-.52,2.44-.6,3.68l-.02.32-.02.43v1.11s-.16.05-.16.05v-6.43s0-4.12,0-4.12v-1.95s0-.13,0-.13c0,0-.02-.05-.02-.04l-.03.04-.21.21-.19.2-.42.44-.22.24-.19.21-.21.23-.79.91-.75.9c-.39.46-.75.92-1.08,1.43-.9,1.4-1.57,2.87-2.18,4.42-.33.84-.65,1.68-.93,2.54l-.36,1.09c-.59-.12-1.18-.2-1.79-.25l-.27-.02-.2-.02-.29-.02-.33-.02-.34-.02-.63-.02h-1.34s-.3.01-.3.01l-.27.02c-1.53.12-3.15.68-4.3,1.71l-.47.47c-.37.41-.65.85-.88,1.35-.32.68-.48,1.41-.54,2.15v1.01s0,.04,0,.04v.04s.02.15.02.15l.04.28.12.53c.06.27.16.51.27.76.21.46.47.88.82,1.25l.04.04.03.03c.82.86,1.92,1.38,3.11,1.44h.65s.19,0,.19,0c.51-.03,1.01-.12,1.5-.27.79-.25,1.49-.67,2.09-1.23l.4-.4.14-.16.03-.04.03-.04c.27-.32.53-.64.73-1.01l.64-1.12c.8-1.56,1.45-3.43,1.97-5.11,0-.02.03-.04.05-.04l1.53.32c.57.12,1.14.2,1.73.23h.3s.82.01.82.01l.45-.02h.28s-.01,2.82-.01,2.82v1.51s.02.42.02.42l.02.28.02.29c.06.81.24,1.71.63,2.43.14.26.31.48.53.68.13.12.36.27.36.22v-8.99l.21-.04.05-.02c.21,1.84.72,3.67,1.7,5.27.32.52.67,1.01,1.1,1.44l.32.32.21.2c1.34,1.21,3.23,1.93,5.03,2.05l.29.02h1.01c.86-.05,1.68-.26,2.46-.63.71-.33,1.34-.77,1.91-1.3l.52-.52c.69-.76,1.26-1.61,1.7-2.54l.31-.73.64-1.49c.38-1.08.7-2.18.99-3.29l1.01-3.86.37-1.47.27-1.08.27-1.06v-.05s.02,0,.02,0v.04s.01.03.01.03v.03s.24,1.4.24,1.4l1.02,5.78,1.86,9.39.21.77c.03.13.1.24.16.35.11.19.3.27.51.25.08,0,.16-.01.23-.05.13-.08.22-.18.3-.32.18-.32.32-.65.46-1l3.07-7.72,2.03-5.33,1.79-4.6s.03-.01.02.02v13.57l.02.15v.6s.03.42.03.42l.02.27.02.24.02.27c.04.49.11.96.22,1.44.24,1.02.7,1.89,1.83,1.99h.5c.43-.03.8-.21,1.11-.49.17-.15.32-.31.45-.5l.55-.83c.21-.31.38-.64.47-1l.03-.09v-.12ZM10.55,18.02c-.52,1.34-1.14,2.74-2,3.89l-.43.51c-.26.31-.57.56-.9.79-.6.42-1.29.66-2.03.73l-.26.02c-.13,0-.24,0-.37,0l-.23-.02c-2.02-.19-3.54-1.73-3.69-3.76v-.74c.14-2.15,1.47-3.72,3.46-4.44.66-.24,1.33-.39,2.02-.43l.3-.02h1.09l.46.02.27.02h.24s.27.04.27.04c.94.08,1.87.22,2.81.45-.31,1-.63,1.97-1,2.95ZM17.98,14.28l-.45.15c-.06.02-.15.02-.22.03h-.26s-.28.03-.28.03h-.77s-.32-.02-.32-.02l-.25-.02c-.42-.03-.81-.12-1.22-.2l-.93-.18c.34-1.07.69-2.11,1.08-3.15.39-1.07.81-2.11,1.29-3.14.34-.72.7-1.41,1.12-2.07.3-.47.63-.9,1.02-1.28l.16-.14v9.98ZM22.31,12.3v-.34s.03-.31.03-.31l.02-.24.02-.29c.14-1.83.55-3.84,1.25-5.55.4-.98.98-2,1.68-2.78l.55-.55c.32-.32.69-.56,1.1-.77.59-.31,1.22-.5,1.88-.55h.17s.49,0,.49,0c.92.05,1.96.28,2.65.91.35.32.59.73.61,1.21v.19s0,.27,0,.27c0,.31-.08.61-.17.91-.34,1.14-1.05,2.17-1.85,3.04l-.63.63-.14.12c-1.35,1.22-2.93,2.22-4.55,3.07l-1.2.6-1.93.86v-.4Z"/>
    </g>
  </g>
</svg>